<?xml version="1.0" encoding="UTF-8" standalone="no"?>
<!DOCTYPE svg PUBLIC "-//W3C//DTD SVG 1.1//EN" "http://www.w3.org/Graphics/SVG/1.1/DTD/svg11.dtd">
<svg width="100%" height="100%" viewBox="0 0 1024 1024" version="1.1" xmlns="http://www.w3.org/2000/svg" xmlns:xlink="http://www.w3.org/1999/xlink" xml:space="preserve" xmlns:serif="http://www.serif.com/" style="fill-rule:evenodd;clip-rule:evenodd;stroke-linejoin:round;stroke-miterlimit:2;">
    <g transform="matrix(-0.00102294,0.999999,-0.999999,-0.00102294,1494.94,-510.704)">
        <text x="1137.11px" y="795.926px" style="font-family:'SourceSansPro-SemiBold', 'Source Sans Pro', sans-serif;font-weight:600;font-size:180px;fill:rgb(57,193,202);">.<tspan x="1184.63px 1265.99px 1358.87px 1424.21px " y="795.926px 795.926px 795.926px 795.926px ">care</tspan></text>
    </g>
    <g transform="matrix(6.71912,0,0,6.71912,-160.163,-159.908)">
        <g transform="matrix(30.706,2.04281e-13,2.04281e-13,-30.706,67.7446,75.3113)">
            <rect x="0.205" y="-1.235" width="0.009" height="2.47" style="fill:url(#_Linear1);"/>
        </g>
        <g transform="matrix(-57.6492,54.7269,54.7269,57.6492,81.2994,101.862)">
            <path d="M0.066,-0.771L1.064,0.28L1.062,0.281C0.117,0.606 -0.173,0.401 -0.571,-0.02L-0.572,-0.021L-0.644,-0.097L0.066,-0.771Z" style="fill:url(#_Linear2);fill-rule:nonzero;"/>
        </g>
        <g transform="matrix(27.892,-73.5817,-73.5817,-27.892,32.634,170.012)">
            <path d="M1.307,0.459L0.023,-0.027L0.024,-0.028C0.389,-0.389 0.565,-0.352 0.847,-0.244L0.847,-0.244L1.482,-0.003L1.307,0.459Z" style="fill:url(#_Linear3);fill-rule:nonzero;"/>
        </g>
        <g transform="matrix(-29.3994,-95.994,-95.994,29.3994,110.994,116.553)">
            <path d="M0.862,-0.337L0.862,-0.337L0.862,-0.337C0.862,-0.337 0.862,-0.336 0.862,-0.334L0.86,-0.282L0.86,-0.282C0.86,-0.111 0.86,0.072 0.861,0.12L0.139,0.341L0.139,0.34C0.198,-0.106 0.35,-0.131 0.63,-0.214L0.63,-0.214L0.659,-0.222C0.666,-0.225 0.673,-0.227 0.68,-0.229C0.682,-0.23 0.685,-0.231 0.687,-0.231C0.694,-0.234 0.7,-0.236 0.707,-0.239C0.709,-0.239 0.711,-0.24 0.713,-0.241L0.738,-0.251C0.744,-0.254 0.751,-0.256 0.757,-0.26C0.76,-0.261 0.762,-0.262 0.765,-0.263C0.771,-0.266 0.777,-0.27 0.783,-0.273C0.785,-0.274 0.787,-0.276 0.79,-0.277C0.795,-0.28 0.799,-0.283 0.804,-0.286C0.806,-0.288 0.809,-0.289 0.811,-0.291C0.817,-0.295 0.822,-0.299 0.828,-0.304C0.83,-0.306 0.832,-0.307 0.834,-0.309C0.845,-0.319 0.854,-0.329 0.862,-0.341L0.862,-0.337Z" style="fill:url(#_Linear4);fill-rule:nonzero;"/>
        </g>
        <g transform="matrix(-4.3e-06,-99.2434,-99.2434,4.3e-06,52.0953,102.985)">
            <path d="M0.761,0.2C0.759,0.199 0.756,0.198 0.754,0.197C0.747,0.194 0.741,0.192 0.734,0.19C0.731,0.189 0.728,0.188 0.726,0.187C0.72,0.185 0.715,0.184 0.709,0.182C0.707,0.182 0.704,0.181 0.701,0.18C0.695,0.179 0.688,0.178 0.681,0.176C0.678,0.176 0.675,0.175 0.673,0.175C0.666,0.174 0.659,0.173 0.651,0.172L0.624,0.17C0.622,0.17 0.62,0.17 0.618,0.17C0.611,0.169 0.603,0.169 0.596,0.169C0.594,0.169 0.591,0.169 0.589,0.169C0.581,0.168 0.574,0.168 0.566,0.168L0.536,0.168L0.536,0.168C0.24,0.171 0.086,0.192 -0.103,-0.222L-0.103,-0.223L0.661,-0.223C0.674,-0.177 0.728,0.001 0.779,0.167L0.796,0.216L0.797,0.219L0.797,0.219L0.798,0.223C0.787,0.214 0.775,0.207 0.761,0.2Z" style="fill:url(#_Linear5);fill-rule:nonzero;"/>
        </g>
        <g transform="matrix(1,0,0,1,76.5654,83.1193)">
            <path d="M0,-4.922L-2.376,-5.652L-4.753,-4.922C-4.775,-2.366 -4.923,-0.848 -2.376,0.73C0.17,-0.848 0.023,-2.366 0,-4.922" style="fill:rgb(89,255,247);fill-rule:nonzero;"/>
        </g>
    </g>
    <g transform="matrix(3.4237e-17,0.539301,-0.539301,3.4237e-17,1044.38,-230.679)">
        <g transform="matrix(4.16667,0,0,4.16667,935.64,646.293)">
            <path d="M0,-115.962L17.499,-115.962L39.949,-67.217L48.257,-48.016L48.966,-48.016L57.095,-67.217L79.365,-115.962L96.688,-115.962L96.688,0L82.724,0L82.724,-63.816C82.724,-74.062 83.961,-87.852 84.67,-98.109L83.961,-98.109L53.995,-32.63L42.516,-32.63L12.55,-98.109L11.842,-98.109C12.55,-87.852 13.608,-74.062 13.608,-63.816L13.608,0L0,0L0,-115.962Z" style="fill:rgb(34,40,81);fill-rule:nonzero;"/>
        </g>
        <g transform="matrix(4.16667,0,0,4.16667,795.032,357.475)">
            <path d="M0,22.662L0,22.664C-0.104,22.662 -0.212,22.662 -0.317,22.661C-1.341,22.648 -2.366,22.641 -3.389,22.641C-3.751,22.638 -4.112,22.636 -4.472,22.636C-5.584,22.638 -6.696,22.648 -7.811,22.668C-8.157,22.674 -8.503,22.684 -8.848,22.695C-9.908,22.722 -10.97,22.76 -12.026,22.815C-12.353,22.832 -12.68,22.855 -13.005,22.876C-13.936,22.932 -14.865,23.006 -15.79,23.093C-16.178,23.129 -16.564,23.163 -16.95,23.204C-17.988,23.317 -19.021,23.453 -20.05,23.613C-20.47,23.678 -20.887,23.748 -21.305,23.823C-22.29,23.994 -23.272,24.184 -24.249,24.407C-24.649,24.5 -25.05,24.607 -25.452,24.708C-26.253,24.912 -27.045,25.137 -27.838,25.378C-28.238,25.5 -28.639,25.615 -29.035,25.75C-30.013,26.077 -30.981,26.45 -31.943,26.849C-32.312,27.002 -32.678,27.164 -33.045,27.328C-35.04,28.239 -36.817,29.303 -38.404,30.594L-38.23,30.08L-38.245,30.088L-38.236,30.064C-38.236,30.064 -38.166,29.866 -38.062,29.579L-35.631,22.394L-35.627,22.378C-28.145,-1.933 -20.202,-27.92 -18.345,-34.638L-17.638,-34.638L0,22.662L0.006,22.662L0,22.662ZM-9.862,-46.654L-26.479,-46.654L-65.718,69.296L-50.121,69.316L-50.102,69.242C-34.063,34.071 -20.953,35.859 4.129,36.08L14.353,69.296L29.379,69.296L-9.862,-46.654Z" style="fill:rgb(34,40,81);fill-rule:nonzero;"/>
        </g>
        <g transform="matrix(4.16667,0,0,4.16667,1574.2,464.405)">
            <path d="M0,-62.377C-11.442,-72.05 -27.537,-72.785 -38.202,-71.935L-38.202,-58.483C-27.835,-59.439 -15.824,-58.207 -8.653,-52.144C-3.807,-48.049 -1.452,-42.09 -1.452,-33.928C-1.452,-12.672 -20.504,-2.991 -38.202,-2.991L-38.202,10.408C-13.279,10.408 11.946,-4.819 11.946,-33.928C11.946,-46.106 7.929,-55.676 0,-62.377" style="fill:rgb(34,40,81);fill-rule:nonzero;"/>
        </g>
    </g>
    <defs>
        <linearGradient id="_Linear1" x1="0" y1="0" x2="1" y2="0" gradientUnits="userSpaceOnUse" gradientTransform="matrix(-0.725249,-0.688486,-0.688486,0.725249,0.362356,0.144603)"><stop offset="0" style="stop-color:rgb(28,61,98);stop-opacity:1"/><stop offset="1" style="stop-color:rgb(0,197,213);stop-opacity:1"/></linearGradient>
        <linearGradient id="_Linear2" x1="0" y1="0" x2="1" y2="0" gradientUnits="userSpaceOnUse" gradientTransform="matrix(1,-5.55112e-17,-5.55112e-17,-1,0,-0.165105)"><stop offset="0" style="stop-color:rgb(33,38,78);stop-opacity:1"/><stop offset="0.96" style="stop-color:rgb(157,4,144);stop-opacity:1"/><stop offset="1" style="stop-color:rgb(157,4,144);stop-opacity:1"/></linearGradient>
        <linearGradient id="_Linear3" x1="0" y1="0" x2="1" y2="0" gradientUnits="userSpaceOnUse" gradientTransform="matrix(1,0,0,-1,2.22045e-16,0.0704229)"><stop offset="0" style="stop-color:rgb(33,38,78);stop-opacity:1"/><stop offset="1" style="stop-color:rgb(150,6,140);stop-opacity:1"/></linearGradient>
        <linearGradient id="_Linear4" x1="0" y1="0" x2="1" y2="0" gradientUnits="userSpaceOnUse" gradientTransform="matrix(1,0,0,-1,0,-1.31345e-05)"><stop offset="0" style="stop-color:rgb(0,197,213);stop-opacity:1"/><stop offset="1" style="stop-color:rgb(33,38,78);stop-opacity:1"/></linearGradient>
        <linearGradient id="_Linear5" x1="0" y1="0" x2="1" y2="0" gradientUnits="userSpaceOnUse" gradientTransform="matrix(1,0,0,-1,0,-4.02975e-06)"><stop offset="0" style="stop-color:rgb(0,197,213);stop-opacity:1"/><stop offset="1" style="stop-color:rgb(33,38,78);stop-opacity:1"/></linearGradient>
    </defs>
</svg>
