<?xml version="1.0" encoding="UTF-8"?>
<svg id="Layer_1" data-name="Layer 1" xmlns="http://www.w3.org/2000/svg" viewBox="0 0 396.04 368.94">
  <defs>
    <style>
      .cls-1 {
        fill: #fff;
        stroke-width: 0px;
      }
    </style>
  </defs>
  <path class="cls-1" d="m198.54,59.53c-32.88,0-59.53,26.65-59.53,59.53s26.65,59.53,59.53,59.53,59.53-26.65,59.53-59.53-26.65-59.53-59.53-59.53Zm-15.98,53.46v13.53l-9.43,9.43c-.98.97-2.65.28-2.65-1.1v-9.9h-4.55c-2.43,0-4.55-2.12-4.55-4.55v-27.29c0-2.43,2.12-4.55,4.55-4.55h34.87c2.43,0,4.55,2.12,4.55,4.55v10.11h0s-13.02,0-13.02,0c-5.3,0-9.77,4.47-9.77,9.77Zm52.11,29.32c0,2.61-2.28,4.89-4.89,4.89h-4.89v10.73c0,1.45-1.75,2.18-2.78,1.15l-11.88-11.88h-17.91c-2.61,0-4.89-2.28-4.89-4.89v-29.31c0-2.61,2.28-4.89,4.89-4.89h37.46c2.6,0,4.88,2.28,4.89,4.89v29.31Z"/>
  <g id="Logo">
    <g>
      <path class="cls-1" d="m136.9,244.93c-1.66.56-3.47.84-5.45.84-2.86,0-4.98-.75-6.35-2.24-1.37-1.5-2.06-3.5-2.06-6.01v-26.42h-6.33v-4.92h6.33v-8.53l6.01-2.04v10.57h11.89l-2.12,4.92h-9.77v25.02c0,1.6.32,2.75.96,3.44s1.64,1.04,3,1.04c1.44,0,2.72-.23,3.84-.7s2.04-.91,2.76-1.34l1.8,4.28c-1.35.84-2.86,1.53-4.51,2.09Z"/>
      <path class="cls-1" d="m157.5,193.88c0,.56-.11,1.1-.32,1.62-.21.52-.52.97-.91,1.34s-.84.67-1.35.9c-.51.23-1.05.34-1.61.34-.59,0-1.14-.11-1.65-.34s-.96-.53-1.35-.9-.69-.82-.91-1.34c-.21-.52-.32-1.06-.32-1.62s.11-1.09.32-1.6c.21-.51.52-.95.91-1.34s.84-.69,1.35-.9,1.06-.32,1.65-.32,1.1.11,1.61.32.96.51,1.35.9.69.83.91,1.34c.21.51.32,1.04.32,1.6Zm-7.17,51.09v-38.8h6.01v38.8h-6.01Z"/>
      <path class="cls-1" d="m217.81,244.97v-25.58c0-1.28-.08-2.46-.24-3.54s-.47-2.01-.94-2.78-1.11-1.38-1.92-1.8c-.81-.43-1.86-.64-3.14-.64s-2.54.19-3.7.56-2.25.84-3.26,1.4-1.97,1.18-2.86,1.86c-.89.68-1.72,1.34-2.46,1.98.05.35.08.75.08,1.2v27.35h-6.01v-25.42c0-1.28-.09-2.47-.26-3.56s-.49-2.04-.96-2.84-1.11-1.42-1.92-1.86-1.86-.66-3.14-.66-2.54.19-3.68.56c-1.15.37-2.22.85-3.22,1.42-1,.57-1.94,1.21-2.82,1.9s-1.71,1.36-2.48,2v28.47h-6.01v-38.8h5.01l.84,4.68c2.59-2.06,5.04-3.51,7.33-4.36,2.3-.85,4.5-1.28,6.61-1.28,2.38,0,4.39.59,6.03,1.78s2.8,2.76,3.47,4.71c1.07-.99,2.2-1.88,3.39-2.68,1.19-.8,2.4-1.48,3.63-2.04,1.23-.56,2.46-.99,3.69-1.3s2.4-.46,3.53-.46c1.47,0,2.89.19,4.27.58s2.6,1.05,3.67,2c1.07.95,1.92,2.2,2.56,3.74.64,1.55.96,3.48.96,5.81v27.63h-6.05v-.03Z"/>
      <path class="cls-1" d="m258.71,226.92v18.06h-6.01v-18.06h-16.54v-5.57h16.54v-17.62h6.01v17.62h16.3v5.57h-16.3Z"/>
    </g>
    <g>
      <path class="cls-1" d="m77.15,284.44v-17.14h1.9v17.14h-1.9Z"/>
      <path class="cls-1" d="m96.7,284.44l-8.69-11.54c-.25-.34-.48-.64-.67-.89-.19-.26-.36-.49-.5-.7-.14-.21-.26-.4-.36-.57s-.19-.34-.27-.51h-.06c.02.29.03.59.04.91s.02.71.02,1.17v12.14h-1.9v-17.15h1.98l8.32,11.13c.29.39.54.73.75,1.02.21.29.39.54.55.76.15.22.28.42.39.59.11.17.2.34.27.51h.05c-.02-.29-.03-.59-.04-.91s-.01-.71-.01-1.17v-11.93h1.9v17.14h-1.77Z"/>
      <path class="cls-1" d="m112.55,280.25c0,.66-.14,1.26-.41,1.81s-.65,1.01-1.14,1.4c-.48.39-1.05.69-1.71.91s-1.38.32-2.15.32c-.56,0-1.07-.04-1.54-.12s-.9-.19-1.29-.32-.74-.28-1.04-.44-.58-.32-.81-.47l.91-1.54c.16.12.37.25.62.39s.54.27.86.39c.32.12.67.22,1.05.3.38.08.79.12,1.22.12.39,0,.79-.05,1.19-.15s.77-.25,1.1-.46.6-.47.81-.79.31-.71.31-1.17c0-.51-.1-.95-.31-1.33s-.48-.73-.83-1.04c-.34-.31-.73-.6-1.17-.86-.44-.26-.89-.53-1.35-.8s-.91-.55-1.36-.85c-.44-.3-.84-.63-1.19-1.02-.37-.4-.67-.85-.9-1.35-.22-.5-.34-1.09-.34-1.75,0-.6.11-1.16.34-1.68s.55-.97.97-1.35.94-.68,1.55-.9,1.3-.33,2.08-.33c.46,0,.88.03,1.26.08s.73.12,1.04.2c.31.08.59.17.84.27.25.1.47.2.65.3v2.02c-.23-.15-.48-.3-.77-.43-.28-.13-.59-.25-.91-.36s-.66-.18-1.01-.24-.69-.09-1.04-.09c-.41,0-.81.04-1.19.13s-.71.23-1,.42-.52.43-.69.73c-.17.3-.25.65-.25,1.07,0,.47.11.9.32,1.27.22.37.5.71.86,1.02s.76.6,1.22.88c.46.27.92.55,1.4.83s.94.58,1.4.89c.46.31.86.67,1.22,1.06s.64.84.86,1.33.32,1.06.32,1.7Z"/>
      <path class="cls-1" d="m126.81,269.08h-4.86v15.36h-1.9v-15.36h-4.91v-1.78h12.35l-.68,1.78Z"/>
      <path class="cls-1" d="m139.34,284.44l-1.78-4.57h-6.88l-1.64,4.57h-1.96l6.55-17.19h1.07l6.58,17.19h-1.94Zm-4.49-12.06c-.15-.45-.28-.84-.39-1.19-.11-.34-.19-.66-.26-.95h-.03c-.08.31-.17.63-.28.96s-.24.71-.39,1.14l-2.13,5.81h5.51l-2.03-5.77Z"/>
      <path class="cls-1" d="m157.13,284.44l-8.69-11.54c-.25-.34-.48-.64-.67-.89-.19-.26-.36-.49-.5-.7-.14-.21-.26-.4-.36-.57s-.19-.34-.27-.51h-.06c.02.29.03.59.04.91s.02.71.02,1.17v12.14h-1.9v-17.15h1.98l8.32,11.13c.29.39.54.73.75,1.02.21.29.39.54.55.76.15.22.28.42.39.59.11.17.2.34.27.51h.05c-.02-.29-.03-.59-.04-.91s0-.71,0-1.17v-11.93h1.9v17.14h-1.77Z"/>
      <path class="cls-1" d="m174.06,269.08h-4.86v15.36h-1.9v-15.36h-4.91v-1.78h12.35l-.68,1.78Z"/>
      <path class="cls-1" d="m199.89,284.44v-12.8c0-.13,0-.26,0-.39s.02-.28.03-.44.03-.34.05-.57h-.06c-.15.4-.3.72-.44.98-.14.25-.28.49-.41.71l-4.61,7.41h-1.24l-4.86-7.41c-.14-.21-.29-.44-.43-.7-.14-.25-.3-.58-.46-.99h-.05c.03.22.05.41.06.57.02.16.03.3.04.44s0,.27,0,.39v12.8h-1.9v-17.14h1.96l5.41,8.16c.22.35.39.63.52.86.13.22.24.44.33.65h.03c.09-.21.2-.43.31-.65s.28-.51.5-.86l5.14-8.16h1.98v17.14h-1.92Z"/>
      <path class="cls-1" d="m207.06,284.44v-17.14h8.4l-.74,1.78h-5.76v5.71h5.71v1.74h-5.71v6.14h6.58v1.76h-8.48Z"/>
      <path class="cls-1" d="m229.03,280.25c0,.66-.14,1.26-.41,1.81s-.65,1.01-1.14,1.4c-.48.39-1.05.69-1.71.91s-1.38.32-2.15.32c-.56,0-1.07-.04-1.54-.12-.47-.08-.9-.19-1.29-.32s-.74-.28-1.04-.44c-.3-.16-.58-.32-.81-.47l.91-1.54c.16.12.37.25.62.39s.54.27.86.39c.32.12.67.22,1.05.3s.79.12,1.22.12c.39,0,.79-.05,1.19-.15.4-.1.77-.25,1.1-.46s.6-.47.81-.79c.21-.32.31-.71.31-1.17,0-.51-.1-.95-.31-1.33s-.48-.73-.83-1.04c-.34-.31-.73-.6-1.17-.86-.44-.26-.89-.53-1.35-.8s-.91-.55-1.36-.85c-.44-.3-.84-.63-1.19-1.02-.37-.4-.67-.85-.9-1.35-.22-.5-.34-1.09-.34-1.75,0-.6.11-1.16.34-1.68s.55-.97.97-1.35.94-.68,1.55-.9,1.3-.33,2.08-.33c.46,0,.88.03,1.26.08s.73.12,1.04.2c.31.08.59.17.84.27.25.1.47.2.65.3v2.02c-.23-.15-.48-.3-.77-.43-.28-.13-.59-.25-.91-.36s-.66-.18-1.01-.24c-.35-.06-.69-.09-1.04-.09-.42,0-.81.04-1.19.13s-.71.23-1,.42-.52.43-.69.73c-.17.3-.25.65-.25,1.07,0,.47.11.9.32,1.27.22.37.5.71.86,1.02s.76.6,1.22.88c.46.27.92.55,1.4.83.47.28.94.58,1.4.89.46.31.86.67,1.22,1.06s.64.84.86,1.33.32,1.06.32,1.7Z"/>
      <path class="cls-1" d="m241.95,280.25c0,.66-.14,1.26-.41,1.81-.28.55-.65,1.01-1.14,1.4-.48.39-1.05.69-1.71.91s-1.38.32-2.15.32c-.56,0-1.07-.04-1.54-.12-.47-.08-.9-.19-1.29-.32s-.74-.28-1.04-.44c-.3-.16-.58-.32-.81-.47l.91-1.54c.16.12.37.25.62.39s.54.27.86.39c.32.12.67.22,1.05.3s.79.12,1.22.12c.39,0,.78-.05,1.19-.15.4-.1.77-.25,1.1-.46s.6-.47.81-.79c.21-.32.31-.71.31-1.17,0-.51-.1-.95-.31-1.33-.21-.38-.48-.73-.83-1.04-.34-.31-.73-.6-1.17-.86-.44-.26-.89-.53-1.35-.8s-.91-.55-1.36-.85c-.44-.3-.84-.63-1.19-1.02-.37-.4-.67-.85-.9-1.35-.22-.5-.34-1.09-.34-1.75,0-.6.11-1.16.34-1.68.22-.52.55-.97.97-1.35s.94-.68,1.55-.9,1.3-.33,2.08-.33c.46,0,.88.03,1.26.08s.73.12,1.04.2c.31.08.59.17.84.27.25.1.47.2.65.3v2.02c-.23-.15-.48-.3-.77-.43-.28-.13-.59-.25-.91-.36-.33-.1-.66-.18-1.01-.24-.35-.06-.69-.09-1.04-.09-.42,0-.81.04-1.19.13s-.71.23-1,.42-.52.43-.69.73c-.17.3-.25.65-.25,1.07,0,.47.11.9.32,1.27.22.37.5.71.86,1.02s.76.6,1.22.88c.46.27.92.55,1.4.83.47.28.94.58,1.4.89.46.31.86.67,1.22,1.06s.64.84.86,1.33.32,1.06.32,1.7Z"/>
      <path class="cls-1" d="m256.58,284.44l-1.78-4.57h-6.88l-1.64,4.57h-1.96l6.55-17.19h1.07l6.58,17.19h-1.94Zm-4.48-12.06c-.15-.45-.28-.84-.39-1.19-.11-.34-.19-.66-.26-.95h-.03c-.08.31-.17.63-.28.96s-.24.71-.39,1.14l-2.13,5.81h5.51l-2.03-5.77Z"/>
      <path class="cls-1" d="m273.57,283.77c-.37.16-.79.3-1.26.44s-.99.25-1.56.34c-.56.09-1.16.14-1.8.14-1.26,0-2.42-.21-3.48-.62s-1.97-.99-2.73-1.73c-.76-.74-1.36-1.64-1.79-2.69-.43-1.05-.64-2.21-.64-3.48,0-1.34.21-2.56.64-3.66.43-1.1,1.03-2.05,1.82-2.84.78-.79,1.72-1.41,2.81-1.84,1.09-.44,2.3-.65,3.63-.65.53,0,1.04.03,1.53.1s.94.15,1.35.25.78.21,1.11.34c.33.12.59.24.81.35v2.06c-.27-.14-.58-.29-.93-.45s-.73-.3-1.14-.43c-.42-.13-.86-.24-1.33-.32-.47-.08-.96-.13-1.47-.13-1.08,0-2.03.17-2.88.51-.84.34-1.56.81-2.14,1.43-.58.61-1.03,1.35-1.33,2.2s-.46,1.79-.46,2.81c0,1.11.16,2.1.48,2.97s.78,1.61,1.39,2.21c.6.6,1.33,1.06,2.19,1.38.85.32,1.82.48,2.88.48.8,0,1.46-.07,1.99-.2s.96-.3,1.28-.5v-6.06h1.9v7.17c-.2.12-.5.27-.87.42Z"/>
      <path class="cls-1" d="m279.44,284.44v-17.14h1.9v17.14h-1.9Z"/>
      <path class="cls-1" d="m299,284.44l-8.69-11.54c-.25-.34-.48-.64-.67-.89-.19-.26-.36-.49-.5-.7-.14-.21-.26-.4-.36-.57-.1-.17-.19-.34-.27-.51h-.06c.02.29.03.59.04.91s.02.71.02,1.17v12.14h-1.9v-17.15h1.98l8.32,11.13c.29.39.54.73.75,1.02.21.29.39.54.55.76.15.22.28.42.39.59.11.17.2.34.27.51h.05c-.02-.29-.03-.59-.04-.91s-.01-.71-.01-1.17v-11.93h1.9v17.14h-1.77Z"/>
      <path class="cls-1" d="m318.28,283.77c-.37.16-.79.3-1.26.44s-.99.25-1.56.34c-.56.09-1.16.14-1.8.14-1.26,0-2.42-.21-3.48-.62s-1.97-.99-2.73-1.73c-.76-.74-1.36-1.64-1.79-2.69-.43-1.05-.64-2.21-.64-3.48,0-1.34.21-2.56.64-3.66s1.03-2.05,1.82-2.84c.78-.79,1.72-1.41,2.81-1.84,1.09-.44,2.3-.65,3.63-.65.53,0,1.04.03,1.53.1s.94.15,1.35.25.79.21,1.11.34c.33.12.59.24.81.35v2.06c-.27-.14-.58-.29-.93-.45s-.73-.3-1.14-.43c-.42-.13-.86-.24-1.33-.32-.47-.08-.96-.13-1.47-.13-1.08,0-2.03.17-2.88.51-.84.34-1.56.81-2.14,1.43-.58.61-1.03,1.35-1.33,2.2s-.46,1.79-.46,2.81c0,1.11.16,2.1.48,2.97s.79,1.61,1.39,2.21,1.33,1.06,2.19,1.38c.85.32,1.82.48,2.88.48.8,0,1.46-.07,1.99-.2s.96-.3,1.28-.5v-6.06h1.9v7.17c-.2.12-.5.27-.87.42Z"/>
      <path class="cls-1" d="m59.53,309.4v-17.14h1.9v17.14h-1.9Z"/>
      <path class="cls-1" d="m80.96,309.4v-12.8c0-.13,0-.26.01-.39s.02-.28.03-.44.03-.34.05-.57h-.06c-.15.4-.3.72-.44.98-.14.25-.28.49-.41.71l-4.61,7.41h-1.24l-4.86-7.41c-.14-.21-.29-.44-.43-.7-.14-.25-.3-.58-.46-.99h-.05c.03.22.05.41.06.57.02.16.03.3.04.44s.01.27.01.39v12.8h-1.9v-17.14h1.96l5.41,8.16c.22.35.39.63.52.86.13.22.24.44.33.65h.03c.09-.21.2-.43.31-.65s.28-.51.5-.86l5.14-8.16h1.98v17.14h-1.92Z"/>
      <path class="cls-1" d="m108.08,308.73c-.37.16-.79.3-1.26.44s-.99.25-1.56.34c-.56.09-1.16.14-1.8.14-1.26,0-2.42-.21-3.48-.62-1.06-.41-1.97-.99-2.73-1.73-.76-.74-1.36-1.64-1.79-2.69s-.64-2.21-.64-3.48c0-1.34.21-2.56.64-3.66s1.03-2.05,1.82-2.84c.78-.79,1.72-1.41,2.81-1.84,1.09-.44,2.3-.65,3.63-.65.53,0,1.04.03,1.53.1s.94.15,1.35.25c.41.1.78.21,1.11.34.33.12.59.24.81.35v2.06c-.27-.14-.58-.29-.93-.45s-.73-.3-1.14-.43c-.42-.13-.86-.24-1.33-.32-.47-.08-.96-.13-1.47-.13-1.08,0-2.03.17-2.88.51-.84.34-1.56.81-2.14,1.43-.58.61-1.03,1.35-1.33,2.2s-.46,1.79-.46,2.81c0,1.11.16,2.1.48,2.97s.78,1.61,1.39,2.21c.6.6,1.33,1.06,2.19,1.38.85.32,1.82.48,2.88.48.8,0,1.46-.07,1.99-.2s.96-.3,1.28-.5v-6.06h1.9v7.17c-.2.12-.5.27-.87.42Z"/>
      <path class="cls-1" d="m113.93,309.4v-17.14h8.4l-.74,1.78h-5.76v5.71h5.71v1.74h-5.71v6.14h6.58v1.76h-8.48Z"/>
      <path class="cls-1" d="m135.9,305.21c0,.66-.14,1.26-.41,1.81-.28.55-.65,1.01-1.14,1.4-.48.39-1.05.69-1.71.91s-1.38.32-2.15.32c-.56,0-1.07-.04-1.54-.12-.47-.08-.9-.19-1.29-.32-.39-.13-.74-.28-1.04-.44s-.58-.32-.81-.47l.91-1.54c.16.12.37.25.62.39s.54.27.86.39c.32.12.67.22,1.05.3s.79.12,1.22.12c.39,0,.79-.05,1.19-.15.4-.1.77-.25,1.1-.46s.6-.47.81-.79c.21-.32.31-.71.31-1.17,0-.51-.1-.95-.31-1.33-.21-.38-.48-.73-.83-1.04-.34-.31-.73-.6-1.17-.86-.44-.26-.89-.53-1.35-.8s-.91-.55-1.36-.85c-.44-.3-.84-.63-1.19-1.02-.37-.4-.67-.85-.89-1.35s-.34-1.09-.34-1.75c0-.6.11-1.16.34-1.68.22-.52.55-.97.97-1.35s.94-.68,1.55-.9,1.3-.33,2.08-.33c.46,0,.88.03,1.26.08s.73.12,1.04.2c.31.08.59.17.84.27.25.1.47.2.65.3v2.02c-.23-.15-.48-.3-.77-.43-.28-.13-.59-.25-.91-.36-.33-.1-.66-.18-1.01-.24-.35-.06-.69-.09-1.04-.09-.41,0-.81.04-1.19.13s-.71.23-1,.42-.52.43-.69.73c-.17.3-.25.65-.25,1.07,0,.47.11.9.32,1.27.22.37.5.71.86,1.02s.76.6,1.22.88c.46.27.92.55,1.4.83.47.28.94.58,1.4.89.46.31.86.67,1.22,1.06s.64.84.86,1.33.31,1.06.31,1.7Z"/>
      <path class="cls-1" d="m152.09,305.98c-.24.75-.64,1.41-1.19,1.99-.51.51-1.16.92-1.96,1.23s-1.77.46-2.91.46c-1.08,0-1.99-.14-2.73-.42s-1.34-.64-1.81-1.08c-.35-.34-.63-.71-.84-1.12s-.38-.83-.5-1.26-.2-.87-.25-1.3c-.05-.44-.07-.85-.07-1.24v-10.98h1.9v11.01c0,.3.02.6.06.91s.1.63.19.94.21.62.37.91.36.56.6.79c.32.34.74.61,1.24.81s1.13.3,1.88.3c.82,0,1.5-.1,2.05-.3s1-.48,1.35-.84c.39-.41.66-.91.83-1.49.16-.58.24-1.21.24-1.89v-11.16h1.9v11.41c0,.8-.11,1.57-.35,2.32Z"/>
      <path class="cls-1" d="m170.12,309.4l-8.69-11.54c-.25-.34-.48-.64-.67-.89-.19-.26-.36-.49-.5-.7-.14-.21-.26-.4-.36-.57s-.19-.34-.27-.51h-.06c.02.29.03.59.04.91s.02.71.02,1.17v12.14h-1.9v-17.14h1.98l8.32,11.13c.29.39.54.73.75,1.02.21.29.39.54.55.76.15.22.28.42.39.59.11.17.2.34.27.51h.05c-.02-.29-.03-.59-.04-.91s0-.71,0-1.17v-11.93h1.9v17.14h-1.77Z"/>
      <path class="cls-1" d="m190.19,300.67c0,1.19-.18,2.31-.53,3.36-.36,1.06-.91,1.99-1.66,2.78-.75.8-1.71,1.43-2.88,1.89-1.16.47-2.55.7-4.16.7h-3.82v-17.14h3.72c1.63,0,3.04.22,4.21.65,1.18.43,2.14,1.02,2.9,1.78.76.75,1.32,1.64,1.68,2.67.36,1.02.54,2.12.54,3.31Zm-1.94-.03c0-.9-.14-1.75-.41-2.54-.28-.8-.7-1.5-1.28-2.1s-1.31-1.08-2.2-1.43-1.94-.53-3.16-.53h-2.16v13.6h2.09c1.32,0,2.43-.19,3.34-.57s1.64-.89,2.2-1.53c.56-.64.96-1.38,1.21-2.23.24-.85.37-1.74.37-2.67Z"/>
      <path class="cls-1" d="m205.72,309.4v-7.82h-9.38v7.82h-1.9v-17.14h1.9v7.57h9.38v-7.57h1.9v17.14h-1.9Z"/>
      <path class="cls-1" d="m212.88,309.4v-17.14h8.4l-.74,1.78h-5.76v5.71h5.71v1.74h-5.71v6.14h6.58v1.76h-8.48Z"/>
      <path class="cls-1" d="m225.38,309.4v-17.14h1.9v17.14h-1.9Z"/>
      <path class="cls-1" d="m242.45,294.04h-4.86v15.36h-1.9v-15.36h-4.91v-1.78h12.35l-.68,1.78Z"/>
      <path class="cls-1" d="m255.08,305.21c0,.66-.14,1.26-.41,1.81-.28.55-.65,1.01-1.14,1.4-.48.39-1.05.69-1.71.91s-1.38.32-2.15.32c-.56,0-1.07-.04-1.54-.12-.47-.08-.9-.19-1.29-.32s-.74-.28-1.04-.44c-.3-.16-.58-.32-.81-.47l.91-1.54c.16.12.37.25.62.39s.54.27.86.39c.32.12.67.22,1.05.3s.79.12,1.22.12c.39,0,.78-.05,1.19-.15.4-.1.77-.25,1.1-.46s.6-.47.81-.79c.21-.32.31-.71.31-1.17,0-.51-.1-.95-.31-1.33-.21-.38-.48-.73-.83-1.04-.34-.31-.73-.6-1.17-.86-.44-.26-.89-.53-1.35-.8s-.91-.55-1.36-.85c-.44-.3-.84-.63-1.19-1.02-.37-.4-.67-.85-.9-1.35-.22-.5-.34-1.09-.34-1.75,0-.6.11-1.16.34-1.68.22-.52.55-.97.97-1.35s.94-.68,1.55-.9,1.3-.33,2.08-.33c.46,0,.88.03,1.26.08s.73.12,1.04.2c.31.08.59.17.84.27.25.1.47.2.65.3v2.02c-.23-.15-.48-.3-.77-.43-.28-.13-.59-.25-.91-.36-.33-.1-.66-.18-1.01-.24-.35-.06-.69-.09-1.04-.09-.42,0-.81.04-1.19.13s-.71.23-1,.42-.52.43-.69.73c-.17.3-.25.65-.25,1.07,0,.47.11.9.32,1.27.22.37.5.71.86,1.02s.76.6,1.22.88c.46.27.92.55,1.4.83.47.28.94.58,1.4.89.46.31.86.67,1.22,1.06s.64.84.86,1.33.32,1.06.32,1.7Z"/>
      <path class="cls-1" d="m274.53,309.48h-1.37l-3.15-8.84c-.14-.37-.28-.78-.42-1.22-.15-.44-.3-.93-.46-1.45h-.05c-.16.51-.32.98-.47,1.42s-.3.86-.44,1.26l-3.28,8.84h-1.4l-5.95-17.21h2.06l3.82,11.44c.15.48.3.94.44,1.38s.27.87.39,1.3h.05c.12-.41.26-.84.42-1.27s.33-.88.5-1.35l2.96-8.11-1.17-3.39h2.01l3.92,11.34c.17.5.33.96.5,1.39.16.43.3.85.42,1.26h.05c.1-.43.21-.85.34-1.26.12-.41.26-.85.41-1.32l3.75-11.41h2.01l-5.89,17.2Z"/>
      <path class="cls-1" d="m283.79,309.4v-17.14h8.4l-.74,1.78h-5.76v5.71h5.71v1.74h-5.71v6.14h6.58v1.76h-8.48Z"/>
      <path class="cls-1" d="m305.76,305.21c0,.66-.14,1.26-.41,1.81s-.65,1.01-1.14,1.4c-.48.39-1.05.69-1.71.91s-1.38.32-2.15.32c-.56,0-1.07-.04-1.54-.12s-.9-.19-1.29-.32-.74-.28-1.04-.44c-.3-.16-.58-.32-.81-.47l.91-1.54c.16.12.37.25.62.39s.54.27.86.39c.32.12.67.22,1.05.3.38.08.79.12,1.22.12.39,0,.79-.05,1.19-.15s.77-.25,1.1-.46c.33-.21.6-.47.81-.79s.31-.71.31-1.17c0-.51-.1-.95-.31-1.33s-.48-.73-.83-1.04c-.34-.31-.73-.6-1.17-.86-.44-.26-.89-.53-1.35-.8s-.91-.55-1.36-.85c-.44-.3-.84-.63-1.19-1.02-.37-.4-.67-.85-.9-1.35-.22-.5-.34-1.09-.34-1.75,0-.6.11-1.16.34-1.68s.55-.97.97-1.35.94-.68,1.55-.9,1.3-.33,2.08-.33c.46,0,.88.03,1.26.08s.73.12,1.04.2c.31.08.59.17.84.27.25.1.47.2.65.3v2.02c-.23-.15-.48-.3-.77-.43-.28-.13-.59-.25-.91-.36s-.66-.18-1.01-.24-.69-.09-1.04-.09c-.42,0-.81.04-1.19.13s-.71.23-1,.42-.52.43-.69.73c-.17.3-.25.65-.25,1.07,0,.47.11.9.32,1.27.22.37.5.71.86,1.02s.76.6,1.22.88c.46.27.92.55,1.4.83.47.28.94.58,1.4.89.46.31.86.67,1.22,1.06s.64.84.86,1.33.32,1.06.32,1.7Z"/>
      <path class="cls-1" d="m309.85,309.4v-17.14h8.4l-.74,1.78h-5.76v5.71h5.71v1.74h-5.71v6.14h6.58v1.76h-8.48Z"/>
      <path class="cls-1" d="m334.75,309.4l-8.69-11.54c-.25-.34-.48-.64-.67-.89-.19-.26-.36-.49-.5-.7-.14-.21-.26-.4-.36-.57-.1-.17-.19-.34-.27-.51h-.06c.02.29.03.59.04.91s.02.71.02,1.17v12.14h-1.9v-17.14h1.98l8.32,11.13c.29.39.54.73.75,1.02.21.29.39.54.55.76.15.22.28.42.39.59.11.17.2.34.27.51h.05c-.02-.29-.03-.59-.04-.91s-.01-.71-.01-1.17v-11.93h1.9v17.14h-1.77Z"/>
    </g>
    <rect class="cls-1" x="59.53" y="255.43" width="276.98" height="1.42"/>
  </g>
</svg>